<svg xmlns="http://www.w3.org/2000/svg" width="32" height="108"><g fill="none" fill-rule="nonzero"><path fill="#FFF" d="M.5 10c.2 0 .3.1.33.15l4.13 4.12c.2.2.3.44.3.73 0 .3-.1.54-.3.74L.83 19.86c-.1.1-.2.15-.34.15-.16 0-.25-.04-.35-.14-.1-.1-.15-.2-.15-.34 0-.15.05-.25.15-.34l4.12-4.13V14.9L.15 10.84c-.2-.2-.2-.5 0-.68C.2 10.1.3 10 .5 10z"/><path fill="#555" d="M.5 20c.2 0 .3.1.33.15l4.13 4.12c.2.2.3.44.3.73 0 .3-.1.54-.3.74L.83 29.86c-.1.1-.2.15-.34.15-.16 0-.25-.04-.35-.14-.1-.1-.15-.2-.15-.34 0-.15.05-.25.15-.34l4.12-4.13V24.9L.15 20.84c-.2-.2-.2-.5 0-.68C.2 20.1.3 20 .5 20z"/><path fill="#F65C51" d="M.5 0c.2 0 .28.1.33.15l4.12 4.1c.2.2.3.46.3.75 0 .3-.1.54-.3.74L.83 9.84c-.1.1-.2.16-.34.16-.16 0-.25-.05-.35-.15-.1-.1-.15-.2-.15-.34s.05-.24.15-.33l4.1-4.12V4.9L.16.83c-.2-.2-.2-.5 0-.68C.2.1.3 0 .5 0z"/><path fill="#07719B" d="M6 39.15L2.28 41.4l1-4.22L0 34.34l4.3-.37L6 30l1.7 3.97 4.3.37-3.27 2.84 1 4.23"/><path fill="#FFF" d="M6 51.15L2.28 53.4l1-4.22L0 46.34l4.3-.37L6 42l1.7 3.97 4.3.37-3.27 2.84 1 4.23"/><path fill="#5C6FA6" d="M13.2 79.97L23.8 69.3c.27-.26.27-.82 0-1.1-.3-.27-.85-.27-1.13 0l-10.6 10.52-10.74-10.5c-.28-.3-.84-.3-1.12 0-.27.26-.27.82 0 1.1l10.6 10.65L.2 90.62c-.27.27-.27.83 0 1.1.15.14.43.28.57.28.28 0 .42-.14.56-.28l10.6-10.65 10.6 10.65c.14.14.42.28.56.28.27 0 .4-.14.55-.28.28-.27.28-.83 0-1.1L13.2 79.97z"/><path fill="#5C6FA6" d="M9.08 63.95c-.94.64-2.1 1-3.33 1C2.57 64.96 0 62.52 0 59.5S2.57 54 5.75 54c3.17 0 5.74 2.45 5.74 5.48 0 1.52-.65 2.9-1.7 3.88l4.06 3.86c.2.18.18.47 0 .64-.2.18-.5.18-.67 0l-4.12-3.9zm-3.33.37c2.8 0 5.07-2.17 5.07-4.84s-2.27-4.84-5.07-4.84c-2.8 0-5.07 2.17-5.07 4.84s2.27 4.84 5.07 4.84z"/><g fill="#5C6FA6"><path d="M-.02 91.98h24v1.38h-24v-1.38"/><path d="M-.02 99.22h24v1.37h-24V99.2"/><path d="M-.02 106.45h24v1.37h-24v-1.37"/></g></g></svg>