<svg xmlns="http://www.w3.org/2000/svg" width="1024" height="1024"><defs><linearGradient id="a" x1=".01%" x2="99.99%" y1="50.12%" y2="50.12%"><stop stop-color="#EB5C6D" offset="0%"/><stop stop-color="#C8738B" offset="24.29%"/><stop stop-color="#9D81A6" offset="49.99%"/><stop stop-color="#7386B9" offset="72.11%"/><stop stop-color="#4F88C4" offset="89.49%"/><stop stop-color="#3D88C7" offset="100%"/></linearGradient></defs><g fill="none" fill-rule="evenodd"><rect width="1024" height="1024" fill="#FFF" rx="52"/><rect width="1024" height="364" y="660" fill="#5C6FA6" rx="52"/><path fill="#5C6FA6" d="M0 661h1024v71H0z"/><path fill="#FFF" d="M323.96 773.08h31.08v110.88H409V910h-85.04V773.08zm109.76 0h31.08V910h-31.08V773.08zM525 799.12h-37.8v-26.04h106.26v26.04h-37.6V910H525V799.12zm91.07-26.04h85.9v26.04h-54.82v27.5h46.62v25.84h-46.62v31.5h56.9V910h-87.98V773.08z"/><g fill-rule="nonzero"><path fill="#5E5E5E" d="M394.6 194c-25.06 0-38.06 16.68-47.34 32.9-2.78-10.66-3.25-28.27-17.17-28.27-10.7 0-48.75 3.25-48.75 13.9 0 8.8 5.1 17.62 5.1 61.18V410.9c0 9.27 7.9 13.9 26 13.9h12.07c18.1 0 26-4.63 26-13.9V271.86c5.1-8.8 16.7-21.8 34.8-21.8 8.82 0 14.4 3.26 20.42 3.26 8.82 0 13.46-28.27 13.46-36.6 0-7.9-3.24-22.72-24.6-22.72z"/><g fill="#5E5E5E"><path d="M711.55 194h-1.87c-13.95 0-22.33 3.3-23.72 9.4L650.6 338.6l-32.1-135.2c-1.4-6.1-11.64-9.4-23.74-9.4h-10.7c-13.96 0 2.33 99.05 2.33 99.05l31.16 123.46c1.86 6.12 9.77 9.4 23.73 9.4h21.4c12.1 0 22.32-3.28 23.72-9.4l51.18-204.2c.47-2.8.93-4.7.93-6.56 0-7.05-8.37-11.74-26.98-11.74z"/><path d="M469.14 194H471c13.96 0 22.33 3.3 23.73 9.4l35.36 135.2 32.1-135.2c1.4-6.1 11.62-9.4 23.72-9.4h10.7c13.96 0-2.32 99.05-2.32 99.05L563.12 416.5c-1.86 6.12-9.77 9.4-23.73 9.4H518c-12.1 0-22.34-3.28-23.74-9.4l-51.18-204.2c-.46-2.8-.93-4.7-.93-6.56 0-7.05 8.37-11.74 27-11.74z"/></g><path fill="url(#a)" d="M602.6 172.4c-3.56-27.77-37.88-49.04-59.18-52 7.7 5.92 15.98 10.94 23.08 17.73 11.83 11.23 17.16 25.1 13.02 41.36-3.85 15.65-13.9 28.05-25.45 38.98-26.92 25.4-59.17 41.95-92.9 55.84-60.95 24.8-124.56 38.7-190.25 44.6-43.2 3.84-86.1 3.25-128.4-4.43-24.26-4.44-47.64-10.94-68.05-25.4-20.7-14.5-27.22-32.5-20.42-53.48l-8.87-32.2-.3-.3c-9.17 6.8-26.92 21.57-37.57 41.95-13.3 25.1-8.28 49.04 13.9 67.06 20.13 16.54 44.1 24.52 68.95 29.83 52.96 11.82 106.5 11.52 160.06 6.8 58-5.02 114.8-16.25 169.84-34.27 45.86-14.78 89.95-33.1 129.6-61.16 16.56-11.8 31.95-25.1 42.6-42.54 8-11.22 12.13-23.92 10.35-38.4z" transform="translate(211 194)"/></g></g></svg>