<svg xmlns="http://www.w3.org/2000/svg" width="159" height="45"><defs><linearGradient id="a" x1=".01%" x2="99.99%" y1="50.12%" y2="50.12%"><stop stop-color="#EB5C6D" offset="0%"/><stop stop-color="#C8738B" offset="24.29%"/><stop stop-color="#9D81A6" offset="49.99%"/><stop stop-color="#7386B9" offset="72.11%"/><stop stop-color="#4F88C4" offset="89.49%"/><stop stop-color="#3D88C7" offset="100%"/></linearGradient></defs><g fill="none" fill-rule="evenodd"><g fill-rule="nonzero"><g fill="#5E5E5E"><path d="M9.32 8.14c-2 0-3.03 1.36-3.77 2.67-.22-.85-.26-2.28-1.37-2.28-.85 0-3.88.26-3.88 1.13 0 .7.4 1.42.4 4.95v11.1c0 .76.63 1.13 2.07 1.13h.97c1.44 0 2.07-.37 2.07-1.12V14.46c.4-.7 1.34-1.76 2.78-1.76.7 0 1.15.25 1.63.25.7 0 1.08-2.3 1.08-2.97 0-.63-.26-1.84-1.96-1.84z"/><path d="M28 17.2c0-4.9-2.04-9.06-7.47-9.06-4.96 0-8.4 2.67-8.4 9.57 0 5.68 2.77 9.36 9.02 9.36 1.93 0 6.22-.8 6.22-2.5 0-.73-1.04-2.68-1.8-2.68-.5 0-2 1.1-4.2 1.1-2.25 0-3.73-.87-4-3.7h8.9c.43-.03 1.73-1.5 1.73-2.1zm-10.58-1.4c.4-2.7 1.66-3.53 3.1-3.53 1.74 0 2.48 1.5 2.48 3.53h-5.58z"/><path d="M38.28 22.82c-.22 0-.63.15-.93.15-.88 0-1.25-.45-1.25-1.5V1.43C36.1.68 35.47.3 34.02.3h-.96C31.62.3 31 .68 31 1.43v19.93c0 3.9 1.8 5.66 5.02 5.66 1.07 0 3.33-.1 3.33-1.72 0-.27-.4-2.48-1.07-2.48z"/><path d="M44.75 8.33h-.96c-1.45 0-2.08.38-2.08 1.13V25.7c0 .76.63 1.13 2.07 1.13h.95c1.44 0 2.07-.37 2.07-1.12V9.47c.04-.72-.6-1.13-2.07-1.13z"/><path d="M44.75.3h-.96c-1.45 0-2.08.38-2.08 1.13v2.85c0 .75.63 1.12 2.07 1.12h.95c1.44 0 2.07-.37 2.07-1.12V1.43C46.86.7 46.22.3 44.75.3z"/><path d="M66.2 17.2c0-4.9-2.03-9.06-7.47-9.06-4.96 0-8.4 2.67-8.4 9.57 0 5.68 2.78 9.36 9.03 9.36 1.92 0 6.2-.8 6.2-2.5 0-.73-1.02-2.68-1.8-2.68-.48 0-2 1.1-4.18 1.1-2.26 0-3.74-.87-4-3.7h8.8c.53-.03 1.82-1.5 1.82-2.1zm-10.58-1.4c.4-2.7 1.67-3.53 3.1-3.53 1.75 0 2.5 1.5 2.5 3.53h-5.6z"/><path d="M103.7 8.33h-.15c-1.1 0-1.77.26-1.88.75l-2.8 10.8L96.3 9.1c-.1-.5-.92-.75-1.88-.75h-.85c-1.1 0-1.82.26-1.9.75l-2.65 10.8-2.74-10.8c-.04-.1-.1-.22-.22-.3-.2-.22-.4-.34-.74-.34H74.85v-2.7c0-1.05.34-1.5 1.26-1.5.34 0 .82.15 1.08.15.7 0 1.08-2.26 1.08-2.52C78.26.26 75.9.15 74.82.15c-3.26 0-5.03 1.8-5.03 5.67v2.62h-.64c-.74 0-1.04.53-1.04 1.77v.6c0 1.25.3 1.77 1.04 1.77h.63v13.18c0 .75.62 1.12 2.06 1.12h.96c1.44 0 2.07-.37 2.07-1.12v-13.2h7.4l3.6 13.57c.16.5.8.75 1.9.75h1.7c.96 0 1.8-.26 1.88-.75l2.37-9.87 2.48 9.87c.15.5.78.75 1.9.75h1.7c.95 0 1.76-.26 1.87-.75l4.07-16.32c.04-.23.08-.38.08-.53 0-.56-.67-.94-2.15-.94z"/><path d="M123.4 17.2c0-4.9-2.02-9.06-7.46-9.06-4.95 0-8.4 2.67-8.4 9.57 0 5.68 2.78 9.36 9.03 9.36 1.92 0 6.2-.8 6.2-2.5 0-.73-1.02-2.68-1.8-2.68-.48 0-2 1.1-4.18 1.1-2.26 0-3.74-.87-4-3.7h8.8c.52-.03 1.8-1.5 1.8-2.1zm-10.56-1.4c.4-2.7 1.66-3.53 3.1-3.53 1.74 0 2.48 1.5 2.48 3.53h-5.58z"/><path d="M135.14 8.14c-1.63 0-2.8.57-3.52 1.1v-7.8c0-.76-.63-1.14-2.07-1.14h-.96c-1.45 0-2.08.38-2.08 1.13V25.7c0 .76.63 1.13 2.07 1.13h.4c1.1 0 1.85-.15 2-.9l.33-1.5c.77 1.5 2.47 2.63 4.62 2.63 3.73 0 6.47-3.38 6.47-9.46 0-5.74-2.62-9.46-7.28-9.46zm-.7 14.68c-1.34 0-2.23-.98-2.85-2.07V12.9c.54-.3 1.32-.66 2.4-.66 2.17 0 3.2 1.83 3.2 5.32.04 3.42-.88 5.26-2.77 5.26z"/></g><path fill="url(#a)" d="M151.74 17.64c-.44-3.53-4.73-6.23-7.4-6.6.97.74 2 1.38 2.9 2.25 1.47 1.4 2.13 3.18 1.62 5.24-.48 2-1.74 3.57-3.18 4.95-3.37 3.22-7.4 5.32-11.62 7.1-7.62 3.14-15.57 4.9-23.78 5.65-5.4.5-10.76.42-16.05-.56-3.03-.57-5.95-1.4-8.5-3.24-2.6-1.83-3.4-4.12-2.56-6.8l-1.1-4.08-.04-.04c-1.15.87-3.37 2.74-4.7 5.33-1.66 3.2-1.03 6.23 1.74 8.52 2.5 2.1 5.5 3.1 8.62 3.78 6.6 1.5 13.3 1.47 20 .87 7.24-.64 14.34-2.07 21.22-4.36 5.73-1.88 11.25-4.2 16.2-7.78 2.07-1.5 4-3.2 5.33-5.4 1-1.43 1.5-3.04 1.3-4.88z"/></g><path fill="#5C6FA6" d="M1 30.64h1.95v7.68h4.63V40H.98v-9.36zM11.7 40H9.78v-9.36h1.94V40zm9.62-9.36v1.66h-2.8V40h-1.97v-7.7h-2.8v-1.66h7.57zm9.06 1.66h-4.95v2H30v1.6h-4.55v2.42h5.18V40h-7.1v-9.36h6.87v1.66z"/></g></svg>