<svg xmlns="http://www.w3.org/2000/svg" width="152" height="40"><defs><linearGradient id="a" x1=".01%" x2="99.99%" y1="50.12%" y2="50.12%"><stop stop-color="#EB5C6D" offset="0%"/><stop stop-color="#C8738B" offset="24.29%"/><stop stop-color="#9D81A6" offset="49.99%"/><stop stop-color="#7386B9" offset="72.11%"/><stop stop-color="#4F88C4" offset="89.49%"/><stop stop-color="#3D88C7" offset="100%"/></linearGradient></defs><g fill="none" fill-rule="nonzero"><g fill="#5E5E5E"><path d="M9.33 8.04c-2 0-3.03 1.33-3.77 2.63C5.33 9.8 5.3 8.4 4.2 8.4c-.87 0-3.9.27-3.9 1.12 0 .7.4 1.4.4 4.9v10.95c0 .74.63 1.1 2.08 1.1h.96c1.45 0 2.07-.36 2.07-1.1v-11.1c.42-.7 1.35-1.75 2.8-1.75.7 0 1.14.26 1.62.26.7 0 1.08-2.26 1.08-2.93 0-.63-.26-1.8-1.97-1.8z"/><path d="M28.04 16.96c0-4.8-2.04-8.92-7.48-8.92-4.97 0-8.4 2.63-8.4 9.44 0 5.6 2.77 9.22 9.03 9.22 1.9 0 6.2-.77 6.2-2.48 0-.7-1.03-2.63-1.8-2.63-.5 0-2 1.07-4.2 1.07-2.25 0-3.73-.86-4-3.63h8.9c.44-.04 1.74-1.48 1.74-2.08zm-10.6-1.37c.4-2.67 1.67-3.5 3.12-3.5 1.74 0 2.48 1.5 2.48 3.5h-5.6z"/><path d="M38.33 22.52c-.22 0-.63.15-.92.15-.88 0-1.25-.45-1.25-1.48V1.4c0-.73-.63-1.1-2.08-1.1h-.96c-1.43 0-2.06.37-2.06 1.1v19.67c0 3.86 1.8 5.6 5.03 5.6 1.08 0 3.34-.1 3.34-1.7 0-.27-.4-2.45-1.07-2.45z"/><path d="M44.8 8.22h-.95c-1.44 0-2.07.37-2.07 1.1v16.05c0 .74.63 1.1 2.07 1.1h.96c1.46 0 2.1-.36 2.1-1.1V9.33c.03-.7-.6-1.1-2.1-1.1z"/><path d="M44.8.3h-.95c-1.44 0-2.07.37-2.07 1.1v2.82c0 .74.63 1.1 2.07 1.1h.96c1.46 0 2.1-.36 2.1-1.1v-2.8C46.92.7 46.3.3 44.8.3z"/><path d="M66.3 16.96c0-4.8-2.04-8.92-7.5-8.92-4.95 0-8.4 2.63-8.4 9.44 0 5.6 2.8 9.22 9.04 9.22 1.93 0 6.23-.77 6.23-2.48 0-.7-1.04-2.63-1.82-2.63-.48 0-2 1.07-4.18 1.07-2.26 0-3.74-.86-4-3.63h8.8c.53-.04 1.83-1.48 1.83-2.08zM55.7 15.6c.4-2.67 1.67-3.5 3.1-3.5 1.76 0 2.5 1.5 2.5 3.5h-5.6z"/><path d="M103.85 8.22h-.15c-1.1 0-1.77.26-1.9.74L99 19.63 96.44 8.96c-.1-.48-.92-.74-1.88-.74h-.86c-1.1 0-1.8.26-1.9.74l-2.65 10.67L86.4 8.96c-.03-.1-.1-.22-.2-.3-.2-.22-.42-.33-.76-.33H74.95V5.67c0-1.04.34-1.48 1.26-1.48.34 0 .82.13 1.08.13.7 0 1.07-2.22 1.07-2.48 0-1.6-2.37-1.7-3.44-1.7-3.26 0-5.04 1.78-5.04 5.6v2.58h-.64c-.74 0-1.04.52-1.04 1.74v.6c0 1.22.3 1.74 1.04 1.74h.63v13c0 .75.62 1.12 2.06 1.12h.97c1.44 0 2.07-.37 2.07-1.1V12.36h7.4l3.64 13.4c.15.5.77.75 1.9.75h1.7c.95 0 1.8-.26 1.88-.74l2.37-9.74 2.47 9.74c.15.48.78.74 1.9.74h1.7c.96 0 1.77-.26 1.88-.74l4.08-16.1c.03-.24.07-.38.07-.53 0-.56-.67-.93-2.15-.93z"/><path d="M123.6 16.96c0-4.8-2.04-8.92-7.5-8.92-4.95 0-8.4 2.63-8.4 9.44 0 5.6 2.78 9.22 9.04 9.22 1.93 0 6.22-.77 6.22-2.48 0-.7-1.03-2.63-1.8-2.63-.5 0-2 1.07-4.2 1.07-2.26 0-3.74-.86-4-3.63h8.82c.52-.04 1.8-1.48 1.8-2.08zM113 15.6c.4-2.67 1.67-3.5 3.1-3.5 1.75 0 2.5 1.5 2.5 3.5H113z"/><path d="M135.33 8.04c-1.63 0-2.8.55-3.52 1.07V1.4c0-.73-.6-1.1-2.06-1.1h-.96c-1.45 0-2.08.37-2.08 1.1v23.97c0 .74.63 1.1 2.08 1.1h.4c1.12 0 1.86-.14 2-.88l.34-1.5c.78 1.5 2.48 2.6 4.63 2.6 3.74 0 6.48-3.33 6.48-9.33 0-5.67-2.63-9.33-7.3-9.33zm-.7 14.48c-1.33 0-2.22-.96-2.85-2.04v-7.74c.55-.3 1.33-.67 2.4-.67 2.2 0 3.23 1.82 3.23 5.26.04 3.37-.88 5.2-2.77 5.2z"/></g><path fill="url(#a)" d="M151.96 17.4c-.44-3.47-4.74-6.14-7.4-6.5.96.73 2 1.36 2.88 2.2 1.5 1.42 2.15 3.16 1.63 5.2-.48 1.96-1.74 3.5-3.18 4.9-3.38 3.17-7.42 5.24-11.64 7-7.63 3.1-15.6 4.84-23.82 5.58-5.4.48-10.77.4-16.07-.56-3.04-.55-5.96-1.37-8.52-3.18-2.6-1.82-3.4-4.08-2.55-6.7l-1.1-4.04-.05-.04c-1.15.85-3.37 2.7-4.7 5.26-1.67 3.15-1.04 6.15 1.74 8.4 2.5 2.08 5.5 3.08 8.6 3.75 6.64 1.48 13.35 1.44 20.05.85 7.26-.63 14.37-2.04 21.26-4.3 5.75-1.85 11.27-4.15 16.23-7.66 2.08-1.5 4-3.15 5.34-5.34 1-1.4 1.52-3 1.3-4.8z"/></g></svg>