<?xml version="1.0" encoding="UTF-8"?>
<svg width="60px" height="36px" viewBox="0 0 60 36" version="1.1" xmlns="http://www.w3.org/2000/svg" xmlns:xlink="http://www.w3.org/1999/xlink">
    <!-- Generator: Sketch 42 (36781) - http://www.bohemiancoding.com/sketch -->
    <title>Artboard</title>
    <desc>Created with Sketch.</desc>
    <defs>
        <linearGradient x1="0.0142576976%" y1="50.1154831%" x2="99.9897154%" y2="50.1154831%" id="linearGradient-1">
            <stop stop-color="#EB5C6D" offset="0%"></stop>
            <stop stop-color="#C8738B" offset="24.29%"></stop>
            <stop stop-color="#9D81A6" offset="49.99%"></stop>
            <stop stop-color="#7386B9" offset="72.11%"></stop>
            <stop stop-color="#4F88C4" offset="89.49%"></stop>
            <stop stop-color="#3D88C7" offset="100%"></stop>
        </linearGradient>
    </defs>
    <g id="Page-1" stroke="none" stroke-width="1" fill="none" fill-rule="evenodd">
        <g id="Artboard" fill-rule="nonzero">
            <g id="logo">
                <path d="M18.2690763,0 C15.7751004,0 14.4819277,1.6626506 13.5582329,3.27911647 C13.2811245,2.21686747 13.2349398,0.46184739 11.8493976,0.46184739 C10.7871486,0.46184739 7,0.785140562 7,1.84738956 C7,2.7248996 7.50803213,3.60240964 7.50803213,7.9437751 L7.50803213,21.6144578 C7.50803213,22.5381526 8.29317269,23 10.0943775,23 L11.2951807,23 C13.0963855,23 13.8815261,22.5381526 13.8815261,21.6144578 L13.8815261,7.75903614 C14.3895582,6.8815261 15.5441767,5.58835341 17.3453815,5.58835341 C18.2228916,5.58835341 18.7771084,5.91164659 19.37751,5.91164659 C20.2550201,5.91164659 20.7168675,3.09437751 20.7168675,2.26305221 C20.7168675,1.47791165 20.3935743,0 18.2690763,0 Z" id="Shape" fill="#5E5E5E"></path>
                <g id="Q" transform="translate(23.000000, 0.000000)" fill="#5E5E5E">
                    <path d="M26.8055556,-5.68434189e-14 L26.6203704,-5.68434189e-14 C25.2314815,-5.68434189e-14 24.3981481,0.32748538 24.2592593,0.935672515 L20.7407407,14.4093567 L17.5462963,0.935672515 C17.4074074,0.32748538 16.3888889,-5.68434189e-14 15.1851852,-5.68434189e-14 L14.1203704,-5.68434189e-14 C12.7314815,-5.68434189e-14 14.3518519,9.87134503 14.3518519,9.87134503 L17.4537037,22.1754386 C17.6388889,22.7836257 18.4259259,23.1111111 19.8148148,23.1111111 L21.9444444,23.1111111 C23.1481481,23.1111111 24.1666667,22.7836257 24.3055556,22.1754386 L29.3981481,1.8245614 C29.4444444,1.54385965 29.4907407,1.35672515 29.4907407,1.16959064 C29.4907407,0.467836257 28.6574074,-5.68434189e-14 26.8055556,-5.68434189e-14 Z" id="Shape"></path>
                    <path d="M13.2476852,0 L13.0625,0 C11.6736111,0 10.8402778,0.32748538 10.7013889,0.935672515 L7.18287037,14.4093567 L3.98842593,0.935672515 C3.84953704,0.32748538 2.83101852,0 1.62731481,0 L0.5625,0 C-0.826388889,0 0.793981481,9.87134503 0.793981481,9.87134503 L3.89583333,22.1754386 C4.08101852,22.7836257 4.86805556,23.1111111 6.25694444,23.1111111 L8.38657407,23.1111111 C9.59027778,23.1111111 10.6087963,22.7836257 10.7476852,22.1754386 L15.8402778,1.8245614 C15.8865741,1.54385965 15.9328704,1.35672515 15.9328704,1.16959064 C15.9328704,0.467836257 15.099537,0 13.2476852,0 Z" id="Shape" transform="translate(7.966435, 11.555556) scale(-1, 1) translate(-7.966435, -11.555556) "></path>
                </g>
                <path d="M59.959532,17.1813848 C59.6062558,14.4140543 56.1912521,12.2943969 54.0715947,12 C54.8370266,12.5887937 55.6613378,13.0892684 56.3678903,13.7663812 C57.5454777,14.8850893 58.0753921,16.2687545 57.6632365,17.8879373 C57.2805205,19.4482407 56.2795712,20.6847075 55.1314234,21.7739759 C52.452412,24.3057889 49.2434861,25.9544114 45.8873619,27.3380766 C39.8227865,29.8110103 33.4932539,31.1946755 26.9576435,31.7834693 C22.6594493,32.1661852 18.3906948,32.1073058 14.1808196,31.341874 C11.7667654,30.9002787 9.44103014,30.2526056 7.40969178,28.8100609 C5.34891373,27.3675163 4.70124063,25.5716954 5.37835342,23.4814777 L4.49516283,20.2725519 C4.49516283,20.2725519 4.49516283,20.2725519 4.46572314,20.2431122 C3.55309286,20.920225 1.78671168,22.3922093 0.726882967,24.4235477 C-0.597902921,26.925921 -0.0974282524,29.3105356 2.11054823,31.1063565 C4.1124469,32.7549789 6.4970615,33.5498504 8.96999516,34.0797648 C14.239699,35.2573523 19.5682823,35.2279126 24.8968655,34.7568776 C30.667044,34.2564029 36.3194638,33.1376948 41.7952455,31.341874 C46.3583969,29.8698896 50.7449102,28.0446291 54.6898281,25.2478589 C56.3384506,24.0702714 57.8693143,22.7454855 58.929143,21.008544 C59.7240145,19.889836 60.1361701,18.6239294 59.959532,17.1813848 Z" id="Shape" fill="url(#linearGradient-1)"></path>
            </g>
        </g>
    </g>
</svg>