<svg version="1" xmlns="http://www.w3.org/2000/svg" width="933.333" height="933.333" viewBox="0 0 700.000000 700.000000"><path d="M217.5 226.7c-15 2.5-22.4 6.1-31.6 15.3-3.6 3.7-8.3 9.4-10.4 12.9-2.5 4.1-4.1 5.8-4.5 4.9-.4-.7-1.5-4.7-2.5-9-3.3-14.4-7.5-19-17.6-19.1-22-.2-48.4 6.3-50.5 12.4-.4 1.3-.8 2.6-.7 2.9 0 .3.4 3.4.7 6.9.4 3.6.9 6.7 1.1 7.1.2.3.6 3 1 6 .3 3 .9 7.3 1.2 9.5.3 2.2.7 36.8.9 77 .6 108.6.7 112.6 2.3 115.2 4 5.9 13.2 8.1 33.8 8.1 19.8-.1 27.1-2 31.7-8.2 2.1-2.7 2.1-3.5 2.1-80v-77.3l2.8-4.2c4.6-6.9 10.8-12.2 18.6-15.9 6.4-3.1 8.3-3.5 15-3.5 7.7 0 12.2.5 17.6 2.1 4.2 1.3 8.4.6 10.1-1.5 3-3.8 5.2-9.1 6.9-16.3.9-4.1 2-8.9 2.4-10.5 1.2-4.9.5-17.7-1.1-21.5-2-4.6-6.4-8.9-11.3-11.1-3.8-1.7-13.8-2.9-18-2.2zM289.5 227.5c-11.8 2.2-16 6.2-15.2 14.2.8 7.6 55.9 226.6 57.6 229 1.7 2.3 6.3 4.6 12.3 6.2 4.9 1.2 39.9 1.2 46.6 0 6.2-1.2 11.4-4 13-7.1.9-1.8 10.6-38.6 12.7-48.2.3-1.1 4.3-17.1 9-35.7 4.7-18.5 8.5-34.1 8.6-34.6 0-1.1 19.4 74.3 21.4 83.5 2.8 13 8.9 34.3 10.3 36.2 3.9 5.2 9.6 6.4 33.3 6.7 18.9.2 22.3 0 27.9-1.7 3.5-1.1 7.4-3 8.7-4.3 2-1.9 5-12.6 17.4-62.3 8.3-32.9 15.2-60.8 15.5-61.9.2-1.1 1-4.5 1.8-7.5 3-11.6 7.7-30.6 8.2-33 .3-1.4 1.1-4.8 1.9-7.5 4.5-15.3 13.7-54.7 13.8-59.1.1-3.3-.3-5.7-1.3-6.9-1.8-2.2-8.2-5.1-13-6-6.5-1.2-20.5-1.2-27.7.1-8.3 1.4-12.7 4.1-14.2 8.7-1 3-4.8 17.4-5.6 20.7-.1.8-2.3 9.4-4.9 19-2.5 9.6-6.6 25.4-9.1 35-2.5 9.6-5.2 19.7-6 22.5-.7 2.7-1.6 6.1-1.9 7.5-.3 1.4-1.5 6.1-2.7 10.5-1.1 4.4-2.2 8.7-2.4 9.5-.2.8-1.1 4.2-2 7.5-.9 3.3-1.8 7.1-2.1 8.4-1.1 5.4-2.1 5.2-3.4-.6-.7-3.2-2.8-11.9-4.6-19.3-1.8-7.4-5.6-23.4-8.4-35.5-2.9-12.1-6.8-28.5-8.7-36.5-1.9-8-3.6-15.2-3.8-16-.2-.8-1.3-5.6-2.4-10.5-1.2-5-2.9-12.1-3.7-15.8-3.2-13.2-8.8-16.1-31.9-16.1-24.1 0-28.9 2.6-32.4 17.7-1.2 5.1-2.6 10.8-3.1 12.7-.5 1.9-2.8 11.4-5 21-2.3 9.6-4.3 18.4-4.6 19.5-.3 1.1-.7 3.1-1 4.5-.3 1.4-1.4 5.9-2.4 10-1.4 5.6-11.7 48.9-13.4 56.5-2.1 9.4-3.1 12.5-3.8 12.5-.4 0-.8-.6-.8-1.3 0-.8-1.5-6.9-3.4-13.8-1.8-6.8-4.8-18-6.6-24.9-1.8-6.9-4.5-17.2-6-23-1.5-5.8-4.7-17.9-7-27-5.2-20.2-11.6-44.7-13.6-51.7-1.8-6.4-5-9.6-11.4-11.2-6.6-1.7-23.1-2-30.5-.6z"/><path d="M614 357.9c0 .3 4.3 3.7 9.5 7.5 20.4 14.9 28.5 26.9 28.9 43.1.6 19.8-12.1 41.1-37 62-11 9.3-12.1 10.1-25.4 19-35.3 23.5-98.8 49.5-152.8 62.6-4.8 1.1-9.4 2.3-10.2 2.5-4.9 1.3-34.2 7.4-37.5 7.9-3.8.5-5.7.9-11.5 2-1.4.3-4.1.8-6 1-1.9.3-6.4 1-10 1.5-14.4 2.1-13.9 2-31 3.9-37.2 4.2-92.8 4.9-119 1.6-1.9-.3-5.5-.7-8-1-6.1-.7-11.9-1.5-15.5-2.1-1.6-.3-3.9-.7-5-.8-1.1-.2-3.3-.6-5-1-1.6-.3-4.1-.8-5.5-1.1-18.3-3.4-33.7-8.1-46.8-14.1-4.1-1.9-7.6-3.4-7.8-3.4-.2 0-4.1-2.4-8.7-5.3C85.2 527.8 76.1 511 80.3 489c1.5-7.4 1.5-7.5-1.9-20-5.3-19-5.7-20.4-6.4-21.3-1.7-1.9-27.2 23.4-34.3 34.1-29 43.5-13.6 78.9 45.8 104.7 20.3 8.8 65.3 17.5 104 20.2 21.1 1.5 78.2.8 98-1.2 2.8-.2 7.9-.7 11.5-1 14.6-1.1 41.1-4.4 50.5-6.1 1.1-.2 3.8-.6 6-.9 2.2-.3 5-.7 6.1-.9 1.2-.2 3.8-.7 5.8-1 3.5-.6 33.4-6.4 36.9-7.2.9-.2 2.6-.6 3.7-.8 16.6-3.7 44.5-11.2 60.5-16.3 4.4-1.4 9.4-2.9 11-3.3 4-1.1 31.7-10.9 43-15.3 23.5-9.1 50.4-21.8 68.3-32.3 9.7-5.7 32.3-20.2 33.2-21.3.3-.4 3.7-3.1 7.5-6 7.8-6 23.2-21.1 28.7-28.1 6.3-8 14.4-22.6 16.3-29.1 2.2-7.7 2.6-19.7.9-26.2-1.6-6.2-4.7-13.7-5.6-13.7-.5 0-.8-.5-.8-1.1 0-1.6-5.7-8.7-11-13.7-7.1-6.7-15.9-12.8-25.1-17.2-8.1-3.8-18.9-7.4-18.9-6.1z"/></svg>